<svg width="451" height="338" viewBox="0 0 451 338" fill="none" xmlns="http://www.w3.org/2000/svg">
<g clip-path="url(#clip0_220_2100)">
<path opacity="0.1" d="M17.8303 78.6925C8.81134 94.0325 14.8946 113.18 16.3731 130.847C17.2706 141.644 16.3296 152.516 13.5898 162.999C9.70095 177.882 2.24939 191.843 0.343072 207.073C-1.56324 222.303 4.32515 240.249 18.9529 245.546C22.5834 246.861 26.5104 247.305 30.0434 248.862C39.6259 253.093 43.8748 264.414 44.201 274.745C44.5272 285.076 41.9516 295.352 42.4175 305.679C42.6802 311.491 44.0654 317.562 48.0687 321.839C51.75 325.77 57.1046 327.652 62.2602 329.327C78.5613 334.628 95.5825 339.316 112.672 337.678C129.761 336.041 147.083 326.81 153.649 311.195C156.025 305.543 156.907 299.35 159.296 293.715C161.685 288.079 166.209 282.669 172.36 281.784C175.953 281.268 179.562 282.36 183.027 283.434L232.702 298.876C240.327 301.249 248.884 303.568 256.043 300.052C259.725 298.241 262.516 295.098 265.202 292.014C286.426 267.794 308.539 241.526 312.424 209.768C313.792 198.578 312.788 187.193 314.309 176.025C315.83 164.856 320.485 153.286 330.148 147.257C337.6 142.603 346.822 141.905 355.6 140.966C369.808 139.443 384.105 136.863 396.992 130.783C409.879 124.704 421.346 114.783 426.832 101.796C428.455 97.9542 429.543 93.7025 428.628 89.6454C426.993 82.4069 419.703 77.9733 412.869 74.8385C392.434 65.5313 370.27 60.5477 348.195 56.1606C338.07 54.1468 327.861 52.2389 317.516 52.3531C308.573 52.4462 299.723 54.0453 290.916 55.5641C215.494 68.5138 133.997 76.6915 58.2993 60.903C42.426 57.5905 26.4765 63.9829 17.8303 78.6925Z" fill="#6C63FF"/>
<path opacity="0.4" d="M125.724 48.9856C125.724 48.9856 216.905 19.9936 252.739 41.286C277.386 55.9279 332.923 51.7185 365.207 47.6572C383.066 45.4083 401.203 47.3761 418.161 53.4023C434.5 59.2151 451.678 66.2335 450.958 69.8253C449.598 76.6196 125.724 72.5413 125.724 72.5413V48.9856Z" fill="#6C63FF"/>
<path d="M341.201 180.746L340.862 180.776L340.968 180.513L340.544 180.687L340.968 179.574C340.968 179.574 339.591 180.128 337.041 181.034C274.424 183.949 143.401 130.893 143.401 130.893L70.8768 140.839C70.4553 140.446 70.0564 140.03 69.6821 139.591L70.0041 140.899C69.8911 140.774 69.7838 140.652 69.6821 140.531L69.7965 140.987H69.6821L69.8601 141.233L78.1589 174.849C78.1589 174.849 226.055 256.228 315.063 245.884L340.4 181.935L341.201 180.746Z" fill="url(#paint0_linear_220_2100)"/>
<path d="M145.685 133.038C145.685 133.038 277.691 186.479 336.21 181.042L297.198 239.03L156.131 195.088L87.165 163.828L119.361 142.083L145.685 133.038Z" fill="#6C63FF"/>
<path opacity="0.1" d="M145.685 133.038C145.685 133.038 277.691 186.479 336.21 181.042L297.198 239.03L156.131 195.088L87.165 163.828L119.361 142.083L145.685 133.038Z" fill="black"/>
<path opacity="0.1" d="M140.466 149.106L175.622 157.034L103.949 169.717L87.165 154.766L140.466 149.106Z" fill="white"/>
<path opacity="0.1" d="M156.115 181.495L197.626 166.32L226.885 176.059L175.622 195.088L156.115 181.495Z" fill="white"/>
<path opacity="0.1" d="M213.274 198.709L258.865 186.254L299.465 197.351L256.37 211.849L213.274 198.709Z" fill="white"/>
<path d="M74.6895 142.764L145.685 133.026V150.24L86.2587 158.845L74.6895 142.764Z" fill="#6C63FF"/>
<path opacity="0.1" d="M75.1426 143.67L145.685 133.026V150.24L86.2585 158.845L75.1426 143.67Z" fill="white"/>
<path d="M11.8616 86.1341C11.8656 79.2005 14.2087 72.4705 18.5128 67.03C22.8169 61.5896 28.831 57.756 35.5846 56.1479C65.124 49.0702 114.663 40.4949 138.894 54.8787C174.733 76.1711 275.89 57.5948 275.89 57.5948C275.89 57.5948 338.489 76.6322 337.13 83.4011C335.77 90.17 11.8743 86.1171 11.8743 86.1171L11.8616 86.1341Z" fill="#6C63FF"/>
<path d="M262.11 62.0072C262.889 61.2838 263.622 60.4292 263.847 59.3885C264.071 58.3478 263.626 57.0998 262.631 56.719C261.517 56.296 260.322 57.0659 259.42 57.8443C258.517 58.6228 257.48 59.5154 256.298 59.3504C256.906 58.7992 257.362 58.0999 257.619 57.3207C257.877 56.5415 257.928 55.7089 257.768 54.9041C257.711 54.5708 257.565 54.2593 257.344 54.003C256.726 53.343 255.603 53.6265 254.862 54.1468C252.502 55.8052 251.845 59.0035 251.833 61.8845C251.595 60.8438 251.795 59.7692 251.79 58.6989C251.786 57.6286 251.494 56.4525 250.591 55.8814C250.031 55.5822 249.401 55.4363 248.766 55.4583C247.707 55.4202 246.525 55.526 245.8 56.3044C244.902 57.2648 245.135 58.8808 245.915 59.9427C246.694 61.0046 247.889 61.6645 248.986 62.3964C249.865 62.9194 250.615 63.6338 251.18 64.4863C251.246 64.6048 251.3 64.7295 251.341 64.8586H257.988C259.485 64.0991 260.872 63.1398 262.11 62.0072Z" fill="#6C63FF"/>
<path d="M116.044 47.5091C116.823 46.7857 117.556 45.9311 117.781 44.8904C118.005 43.8497 117.56 42.6017 116.565 42.2209C115.451 41.7979 114.256 42.5678 113.354 43.3463C112.451 44.1247 111.413 45.0173 110.232 44.8523C110.843 44.2995 111.3 43.5974 111.558 42.8149C111.815 42.0324 111.865 41.1965 111.701 40.3891C111.645 40.0558 111.499 39.7443 111.278 39.488C110.659 38.828 109.537 39.1115 108.795 39.6318C106.436 41.2902 105.779 44.4885 105.766 47.3695C105.529 46.3288 105.728 45.2542 105.724 44.1839C105.72 43.1136 105.428 41.9375 104.525 41.3664C103.965 41.0672 103.335 40.9213 102.699 40.9433C101.64 40.9052 100.458 41.011 99.7341 41.7894C98.836 42.7497 99.069 44.3658 99.8485 45.4277C100.628 46.4896 101.823 47.1495 102.92 47.8814C103.799 48.4044 104.549 49.1188 105.114 49.9713C105.18 50.0898 105.234 50.2145 105.275 50.3436H111.922C113.418 49.5893 114.804 48.6358 116.044 47.5091Z" fill="#6C63FF"/>
<path d="M332.876 78.7687C333.656 78.0453 334.389 77.1907 334.613 76.15C334.838 75.1093 334.393 73.8612 333.398 73.4805C332.283 73.0574 331.089 73.8274 330.186 74.6058C329.284 75.3842 328.246 76.2769 327.064 76.1119C327.673 75.5606 328.128 74.8614 328.386 74.0822C328.643 73.3029 328.695 72.4704 328.534 71.6656C328.478 71.3323 328.331 71.0208 328.111 70.7645C327.492 70.1045 326.37 70.388 325.628 70.9083C323.269 72.5667 322.612 75.765 322.599 78.646C322.362 77.6053 322.561 76.5307 322.557 75.4604C322.553 74.3901 322.26 73.214 321.358 72.6428C320.797 72.3437 320.168 72.1978 319.532 72.2198C318.473 72.1817 317.291 72.2875 316.567 73.0659C315.669 74.0262 315.902 75.6423 316.681 76.7042C317.461 77.766 318.655 78.426 319.753 79.1579C320.632 79.6809 321.382 80.3953 321.947 81.2478C322.013 81.3663 322.067 81.491 322.108 81.6201H328.755C330.252 80.8606 331.638 79.9013 332.876 78.7687Z" fill="#6C63FF"/>
<path d="M249.511 214.688C245.275 210.512 241.924 205.554 240.153 199.902C238.793 195.549 237.577 191.297 237.577 189.922C237.577 187.515 234.227 178.457 230.088 174.091C229.944 173.939 229.795 173.791 229.664 173.668C228.944 170.825 227.508 163.655 229.999 159.204C230.608 158.117 231.117 156.977 231.52 155.799C233.013 151.235 235.308 146.973 238.298 143.213C238.897 142.489 239.428 141.712 239.882 140.89C240.92 141.068 241.53 140.78 241.403 139.761C241.403 139.722 241.403 139.684 241.403 139.646C241.882 139.536 242.131 139.189 242.047 138.508C241.416 133.491 243.945 117.808 243.945 117.808C246.346 110.733 247.406 103.273 247.071 95.8093C246.44 83.8918 233.786 81.3831 233.786 81.3831L232.74 82.4196C231.892 81.8993 230.944 81.3154 229.982 80.6978C230.174 80.6147 230.348 80.4946 230.493 80.3443C230.638 80.194 230.753 80.0166 230.829 79.8221C231.926 77.5502 231.981 74.4366 232.138 71.9744C232.23 71.1797 232.193 70.3754 232.028 69.5926C231.825 68.9237 231.498 68.2993 231.062 67.7523C230.084 66.4654 228.834 65.4092 227.401 64.6584C225.969 63.9075 224.388 63.4805 222.772 63.4075C221.721 63.3652 220.654 63.4752 219.624 63.4752C217.693 63.4752 215.761 63.1029 213.838 63.2637C211.914 63.4244 209.881 64.2705 209.029 65.9924C208.496 67.0712 208.491 68.3699 207.86 69.3768C207.132 70.5571 205.712 71.1579 204.895 72.279C204.448 72.8942 204.206 73.6343 204.204 74.3943C204.193 74.6412 204.244 74.8872 204.353 75.1092C204.546 75.3772 204.786 75.6091 205.06 75.7946C205.527 76.2188 205.836 76.7896 205.935 77.4127C206.033 78.0358 205.916 78.6738 205.602 79.2213C206.255 79.3432 206.858 79.654 207.335 80.115C207.813 80.5761 208.144 81.1671 208.288 81.8146C208.302 82.0321 208.382 82.2402 208.517 82.4111C208.638 82.51 208.785 82.5717 208.94 82.5888C210.173 82.8004 211.419 82.2208 212.351 81.3874C212.427 81.527 212.499 81.6623 212.584 81.8104C213.695 83.6314 215.425 84.9924 217.458 85.6449C219.491 86.2973 221.692 86.1976 223.657 85.3641C223.832 85.5841 224.005 85.8111 224.174 86.0452C224.877 87.0169 225.455 88.073 225.894 89.1885L224.92 90.1531C224.063 91.4939 223.292 92.8871 222.611 94.3244C221.032 97.3334 219.875 100.545 219.171 103.869C216.875 106.136 213.325 110.214 212.901 113.988C212.901 113.988 196.452 122.144 192.025 117.753C187.598 113.362 181.905 120.888 183.167 122.144C184.429 123.401 188.229 125.91 192.656 123.414H210.376C213.072 123.055 215.666 122.152 218.002 120.761C217.688 121.607 217.299 122.483 216.866 123.376C216.201 124.645 215.485 125.914 214.816 127.052C214.448 127.352 214.083 127.644 213.719 127.923C211.453 128.858 208.602 130.039 205.64 131.308C204.007 131.655 202.459 132.319 201.082 133.262C194.245 136.224 188.056 139.109 188.238 139.71C187.78 140.01 187.543 140.234 187.607 140.353C187.67 140.471 187.725 140.615 187.814 140.835C187.327 142.625 187.234 146.284 188.238 153.527C190.78 171.718 185.073 174.853 185.073 174.853C185.073 174.853 180.646 180.496 175.584 179.87C170.522 179.244 174.953 184.262 179.397 183.636C182.383 183.213 188.831 182.789 192.703 182.557C193.053 182.535 193.393 182.437 193.7 182.269C194.008 182.101 194.274 181.867 194.48 181.584C194.686 181.301 194.827 180.976 194.892 180.632C194.958 180.288 194.947 179.934 194.859 179.595C194.127 176.822 194.031 173.92 194.58 171.105C195.533 166.383 197.918 157.398 198.769 152.435V152.38C200.04 151.111 202.408 149.364 205.327 149.778C206.848 149.994 209.563 148.577 212.478 146.631C210.953 155.299 209.788 164.611 211.02 167.97C213.562 174.87 216.083 178.005 216.083 178.005C216.083 178.005 217.299 178.06 219.006 178.039L219.823 179.308L231.261 196.839C231.261 196.839 241.382 211.265 231.892 213.148C231.892 213.148 224.301 215.03 227.466 217.539C227.466 217.539 249.608 218.165 250.24 216.27C250.392 215.784 250.07 215.238 249.511 214.688Z" fill="url(#paint1_linear_220_2100)"/>
<path d="M235.625 85.1483C235.625 85.1483 227.017 102.341 226.402 93.7448C226.224 91.1881 225.333 88.7321 223.831 86.6544C222.258 84.4726 220.189 82.6949 217.794 81.4677C217.794 81.4677 222.712 72.2578 222.098 74.6989C221.785 75.968 225.322 78.6544 228.876 80.9939C232.244 83.2403 235.625 85.1483 235.625 85.1483Z" fill="#FFB9B9"/>
<path d="M195.046 169.886C194.512 172.643 194.605 175.483 195.317 178.199C195.406 178.531 195.42 178.878 195.359 179.215C195.297 179.553 195.162 179.873 194.961 180.151C194.761 180.43 194.501 180.661 194.201 180.828C193.901 180.994 193.567 181.092 193.224 181.114C189.458 181.338 183.193 181.753 180.291 182.168C175.987 182.781 171.683 177.869 176.601 178.483C181.519 179.096 185.823 173.571 185.823 173.571C185.823 173.571 191.356 170.5 188.899 152.693C187.92 145.607 188.013 142.02 188.475 140.272C188.565 139.829 188.761 139.414 189.047 139.062C189.176 138.915 189.348 138.811 189.538 138.766C189.755 138.745 189.973 138.772 190.177 138.845C190.381 138.919 190.567 139.036 190.72 139.189C190.72 139.189 198.714 146.559 199.328 148.399C199.481 148.852 199.371 150.028 199.095 151.619C198.291 156.471 195.973 165.262 195.046 169.886Z" fill="#FFB9B9"/>
<path opacity="0.05" d="M195.046 169.886C194.512 172.643 194.605 175.483 195.317 178.199C195.406 178.531 195.42 178.878 195.359 179.215C195.297 179.553 195.162 179.873 194.961 180.151C194.761 180.43 194.501 180.661 194.201 180.828C193.901 180.994 193.567 181.092 193.224 181.114C189.458 181.338 183.193 181.753 180.291 182.168C175.987 182.781 171.683 177.869 176.601 178.483C181.519 179.096 185.823 173.571 185.823 173.571C185.823 173.571 191.356 170.5 188.899 152.693C187.92 145.607 188.013 142.02 188.475 140.272C188.565 139.829 188.761 139.414 189.047 139.062C189.176 138.915 189.348 138.811 189.538 138.766C189.755 138.745 189.973 138.772 190.177 138.845C190.381 138.919 190.567 139.036 190.72 139.189C190.72 139.189 198.714 146.559 199.328 148.399C199.481 148.852 199.371 150.028 199.095 151.619C198.291 156.471 195.973 165.262 195.046 169.886Z" fill="black"/>
<path d="M249.155 214.1C248.541 215.94 227.021 215.327 227.021 215.327C223.945 212.869 231.325 211.028 231.325 211.028C240.547 209.188 230.711 195.062 230.711 195.062L219.569 177.882L217.167 174.168C217.167 174.168 220.243 169.869 225.775 170.483C227.046 170.622 228.347 171.494 229.563 172.793C233.583 177.066 236.845 185.933 236.845 188.289C236.845 189.634 238.027 193.789 239.348 198.058C241.068 203.591 244.343 208.439 248.443 212.53C248.998 213.101 249.308 213.639 249.155 214.1Z" fill="#FFB9B9"/>
<path opacity="0.1" d="M199.117 151.614C198.52 152.118 197.98 152.686 197.507 153.307C192.974 152.74 189.488 142.794 188.488 140.272C188.403 140.057 188.335 139.896 188.284 139.799C188.234 139.701 188.5 139.414 189.06 139.062L189.551 138.766C189.767 138.745 189.985 138.772 190.19 138.845C190.394 138.919 190.579 139.036 190.733 139.189C190.733 139.189 198.727 146.559 199.341 148.399C199.502 148.852 199.392 150.024 199.117 151.614Z" fill="black"/>
<path d="M218.408 125.677C218.408 125.677 188.28 137.946 188.895 139.185C189.509 140.425 193.199 152.08 198.117 152.693C198.117 152.693 201.192 148.395 205.496 149.008C209.8 149.622 223.941 136.74 223.941 136.74L233.778 129.37L218.408 125.677Z" fill="#4C4C78"/>
<path opacity="0.05" d="M218.408 125.677C218.408 125.677 188.28 137.946 188.895 139.185C189.509 140.425 193.199 152.08 198.117 152.693C198.117 152.693 201.192 148.395 205.496 149.008C209.8 149.622 223.941 136.74 223.941 136.74L233.778 129.37L218.408 125.677Z" fill="black"/>
<path opacity="0.1" d="M230.092 174.798C230.092 177.357 223.568 177.844 219.582 177.899L217.18 174.185C217.18 174.185 220.255 169.886 225.788 170.5C227.059 170.639 228.359 171.511 229.575 172.81C229.855 174.032 230.092 174.798 230.092 174.798Z" fill="black"/>
<path d="M215.952 128.748C215.952 128.748 208.572 160.054 211.033 166.823C213.495 173.592 215.952 176.647 215.952 176.647C215.952 176.647 229.478 177.26 229.478 173.575C229.478 173.575 226.402 163.752 229.478 158.223C230.07 157.158 230.565 156.042 230.956 154.889C232.4 150.425 234.624 146.253 237.527 142.565C239.022 140.721 240.166 138.635 239.929 136.731C239.315 131.816 215.952 128.748 215.952 128.748Z" fill="#4C4C78"/>
<path d="M220.87 102.341C220.87 102.341 213.49 108.501 212.876 114.001C212.876 114.001 196.888 121.984 192.584 117.686C188.28 113.387 182.748 120.77 183.985 121.992C185.222 123.215 188.903 125.677 193.207 123.219H210.419C210.419 123.219 222.103 121.992 222.704 112.782C223.306 103.572 220.87 102.341 220.87 102.341Z" fill="#FFB9B9"/>
<path opacity="0.05" d="M220.87 102.341C220.87 102.341 213.49 108.501 212.876 114.001C212.876 114.001 196.888 121.984 192.584 117.686C188.28 113.387 182.748 120.77 183.985 121.992C185.222 123.215 188.903 125.677 193.207 123.219H210.419C210.419 123.219 222.103 121.992 222.704 112.782C223.306 103.572 220.87 102.341 220.87 102.341Z" fill="black"/>
<path opacity="0.1" d="M227.326 80.5455C227.216 80.9431 227.491 80.1774 227.326 80.5455C226.428 82.5761 225.894 85.8083 223.835 86.6544C222.263 84.4726 220.194 82.6949 217.799 81.4677C217.799 81.4677 222.717 72.2578 222.103 74.6989C221.785 75.9638 223.806 78.206 227.326 80.5455Z" fill="black"/>
<path d="M228.554 78.0875C228.554 79.7877 228.049 81.4498 227.104 82.8635C226.158 84.2771 224.813 85.379 223.24 86.0296C221.667 86.6803 219.937 86.8505 218.267 86.5188C216.597 86.1871 215.063 85.3684 213.859 84.1661C212.656 82.9639 211.836 81.4322 211.504 79.7646C211.171 78.097 211.342 76.3686 211.993 74.7978C212.645 73.227 213.748 71.8844 215.164 70.9398C216.579 69.9952 218.244 69.491 219.946 69.491C221.079 69.4837 222.201 69.7011 223.249 70.1305C224.297 70.5599 225.249 71.1929 226.049 71.9926C226.85 72.7923 227.484 73.7429 227.914 74.7892C228.344 75.8354 228.562 76.9566 228.554 78.0875Z" fill="#FFB9B9"/>
<path opacity="0.1" d="M223.945 91.9045L232.553 83.308C232.553 83.308 244.839 85.7659 245.466 97.4296C245.775 104.721 244.732 112.007 242.39 118.921C242.39 118.921 239.929 134.273 240.547 139.185C241.166 144.097 224.56 131.816 224.56 131.816C224.56 131.816 211.033 134.273 211.648 132.429C212.262 130.584 219.641 120.16 218.426 116.463C217.896 114.876 218.048 111.361 218.396 107.866C218.972 102.183 220.877 96.7138 223.958 91.9002L223.945 91.9045Z" fill="black"/>
<path d="M243.004 117.694C243.004 117.694 240.547 133.038 241.174 137.958C241.801 142.878 225.186 130.589 225.186 130.589C225.186 130.589 223.068 130.974 220.527 131.325C216.684 131.858 211.902 132.315 212.27 131.202C212.368 130.941 212.485 130.688 212.622 130.445C214.227 127.416 220.149 118.561 219.035 115.215C218.506 113.633 218.658 110.113 219.006 106.618C219.585 100.935 221.491 95.4661 224.572 90.6523L233.18 82.0558C233.18 82.0558 245.465 84.5137 246.092 96.1774C246.4 103.478 245.353 110.773 243.004 117.694Z" fill="#CBCDDA"/>
<path opacity="0.1" d="M228.554 78.0875C228.557 79.2774 228.31 80.4547 227.83 81.5438C227.097 80.9418 226.464 80.2279 225.953 79.4286C225.219 78.294 224.418 77.2035 223.556 76.1626C223.37 75.8988 223.111 75.6956 222.81 75.5788C222.242 75.418 221.666 75.9341 221.505 76.5053C221.407 77.0892 221.407 77.6855 221.505 78.2694C221.553 78.5627 221.537 78.863 221.457 79.1494C221.378 79.4358 221.236 79.7014 221.043 79.9278C220.311 80.6089 219.124 80.1351 218.29 79.5766C217.455 79.0182 216.409 78.3963 215.524 78.8659C215.194 79.0732 214.916 79.3523 214.71 79.6824C214.076 80.6833 213.357 81.6287 212.563 82.5084C211.879 81.3725 211.468 80.0942 211.362 78.7734C211.255 77.4527 211.456 76.1251 211.948 74.8946C212.44 73.664 213.21 72.5637 214.198 71.6796C215.187 70.7954 216.366 70.1514 217.645 69.7978C218.924 69.4442 220.267 69.3906 221.57 69.6412C222.873 69.8918 224.1 70.4397 225.156 71.2423C226.212 72.0448 227.067 73.0803 227.656 74.2677C228.245 75.4551 228.551 76.7624 228.55 78.0875H228.554Z" fill="black"/>
<path d="M231.562 72.8713C231.652 72.0936 231.616 71.3066 231.456 70.5403C231.26 69.8876 230.942 69.2776 230.52 68.7423C229.574 67.4855 228.363 66.4525 226.971 65.7169C225.58 64.9812 224.044 64.5611 222.471 64.4863C221.45 64.4483 220.434 64.554 219.413 64.554C217.536 64.554 215.659 64.1902 213.787 64.3467C211.914 64.5033 209.94 65.3324 209.127 67.0162C208.61 68.0738 208.606 69.343 207.992 70.3457C207.284 71.5006 205.903 72.0886 205.111 73.1886C204.678 73.7917 204.443 74.5149 204.442 75.2573C204.431 75.4984 204.48 75.7383 204.586 75.9554C204.774 76.2164 205.006 76.4426 205.272 76.6238C205.727 77.041 206.027 77.6001 206.122 78.2095C206.217 78.8189 206.103 79.4426 205.797 79.9786C206.434 80.0977 207.022 80.4022 207.486 80.8538C207.951 81.3054 208.271 81.8841 208.407 82.517C208.42 82.7293 208.496 82.9328 208.627 83.1008C208.748 83.1994 208.895 83.2598 209.051 83.2742C210.283 83.49 211.537 82.8808 212.44 82.0262C213.342 81.1716 214.003 80.0802 214.727 79.0648C214.93 78.7338 215.207 78.4543 215.536 78.2483C216.422 77.7787 217.464 78.4091 218.298 78.9633C219.133 79.5175 220.323 79.9913 221.056 79.306C221.249 79.0805 221.391 78.8157 221.47 78.5299C221.55 78.2442 221.566 77.9445 221.518 77.6518C221.418 77.068 221.418 76.4715 221.518 75.8877C221.679 75.3166 222.251 74.8004 222.823 74.9612C223.122 75.0791 223.379 75.2839 223.56 75.5492C224.424 76.5896 225.226 77.6802 225.962 78.8152C226.758 80.0463 229.139 82.9612 230.3 80.5455C231.359 78.3287 231.431 75.2785 231.562 72.8713Z" fill="#B96B6B"/>
<path opacity="0.1" d="M218.722 114.931C218.722 114.931 227.944 114.318 230.405 116.158C232.867 117.999 242.691 117.385 242.691 117.385" fill="black"/>
<path opacity="0.05" d="M239.314 111.555C239.314 111.555 236.239 117.694 236.239 119.539C236.239 121.383 233.777 123.837 233.777 123.837C233.777 123.837 226.83 127.644 220.514 131.329C216.672 131.862 211.889 132.319 212.257 131.206C212.355 130.945 212.473 130.692 212.609 130.449C219.162 126.464 228.245 115.219 228.245 115.219C228.245 109.694 231.32 99.8665 231.32 99.8665C231.32 99.8665 238.7 96.1816 241.157 99.8665C243.614 103.551 239.314 111.555 239.314 111.555Z" fill="black"/>
<path opacity="0.1" d="M74.6895 141.402L82.8527 174.472C82.8527 174.472 225.297 252.847 311.034 242.88L335.986 179.908C335.986 179.908 274.492 204.733 209.237 193.319C206.736 192.877 204.264 192.288 201.832 191.555C182.333 185.726 87.699 156.831 74.6895 141.402Z" fill="black"/>
<path d="M74.6895 142.307L82.8527 175.378C82.8527 175.378 225.292 253.749 311.03 243.786L335.982 180.814C335.982 180.814 274.488 205.639 209.233 194.225C206.732 193.782 204.259 193.193 201.828 192.461C182.333 186.631 87.699 157.736 74.6895 142.307Z" fill="#6C63FF"/>
<path d="M124.036 63.1884L121.989 65.6147L212.256 141.578L214.303 139.152L124.036 63.1884Z" fill="#535461"/>
<path d="M230.092 98.6608C230.092 98.6608 227.017 108.501 227.017 114.001C227.017 114.001 214.105 129.967 207.954 130.58C201.803 131.194 198.117 134.879 200.574 136.105C203.031 137.332 206.107 139.177 209.796 136.105C213.486 133.034 232.545 122.597 232.545 122.597C232.545 122.597 235.006 120.139 235.006 118.299C235.006 116.459 238.082 110.316 238.082 110.316C238.082 110.316 242.386 102.333 239.925 98.6481C237.463 94.9633 230.092 98.6608 230.092 98.6608Z" fill="#FFB9B9"/>
<path opacity="0.1" d="M237.472 88.8332C237.472 88.8332 226.402 87.6063 228.249 103.568C228.249 103.568 235.629 99.27 241.776 103.568C241.776 103.572 244.233 91.9046 237.472 88.8332Z" fill="black"/>
<path d="M237.472 87.6063C237.472 87.6063 226.402 86.3794 228.249 102.341C228.249 102.341 235.629 98.043 241.776 102.341C241.776 102.341 244.233 90.6776 237.472 87.6063Z" fill="#CBCDDA"/>
<path d="M125.723 67.2065L122.093 249.222" stroke="#535461" stroke-width="2" stroke-miterlimit="10"/>
<path opacity="0.15" d="M113.023 236.082C113.023 236.082 99.4163 244.234 108.033 262.358" stroke="#6C63FF" stroke-miterlimit="10"/>
<path opacity="0.15" d="M119.373 239.255C119.373 239.255 105.766 247.407 114.383 265.531" stroke="#6C63FF" stroke-miterlimit="10"/>
<path opacity="0.15" d="M126.63 236.082C126.63 236.082 140.237 244.234 131.62 262.358" stroke="#6C63FF" stroke-miterlimit="10"/>
<path opacity="0.15" d="M121.64 240.613C121.64 240.613 135.247 248.765 126.63 266.889" stroke="#6C63FF" stroke-miterlimit="10"/>
<path opacity="0.1" d="M67.3055 24.736H64.1834C64.7631 24.736 65.3191 24.5061 65.7291 24.0967C66.139 23.6873 66.3693 23.132 66.3693 22.5531C66.3693 21.9741 66.139 21.4189 65.7291 21.0095C65.3191 20.6001 64.7631 20.3701 64.1834 20.3701H38.9014C38.6144 20.3701 38.3301 20.4266 38.0649 20.5363C37.7997 20.646 37.5587 20.8068 37.3557 21.0095C37.1528 21.2122 36.9918 21.4528 36.8819 21.7177C36.7721 21.9825 36.7155 22.2664 36.7155 22.5531C36.7155 22.8398 36.7721 23.1236 36.8819 23.3885C36.9918 23.6533 37.1528 23.894 37.3557 24.0967C37.5587 24.2994 37.7997 24.4602 38.0649 24.5699C38.3301 24.6796 38.6144 24.736 38.9014 24.736H42.0235C41.4438 24.736 40.8878 24.966 40.4779 25.3754C40.0679 25.7848 39.8376 26.3401 39.8376 26.919C39.8376 27.498 40.0679 28.0532 40.4779 28.4626C40.8878 28.872 41.4438 29.102 42.0235 29.102H37.6517C37.072 29.102 36.516 29.332 36.1061 29.7414C35.6961 30.1507 35.4658 30.706 35.4658 31.2849C35.4658 31.8639 35.6961 32.4191 36.1061 32.8285C36.516 33.2379 37.072 33.4679 37.6517 33.4679H62.9337C63.5134 33.4679 64.0694 33.2379 64.4794 32.8285C64.8893 32.4191 65.1196 31.8639 65.1196 31.2849C65.1196 30.706 64.8893 30.1507 64.4794 29.7414C64.0694 29.332 63.5134 29.102 62.9337 29.102H67.3055C67.8852 29.102 68.4412 28.872 68.8512 28.4626C69.2611 28.0532 69.4914 27.498 69.4914 26.919C69.4914 26.3401 69.2611 25.7848 68.8512 25.3754C68.4412 24.966 67.8852 24.736 67.3055 24.736Z" fill="#6C63FF"/>
<path opacity="0.1" d="M240.136 4.36172H237.014C237.594 4.36172 238.15 4.13173 238.56 3.72234C238.97 3.31296 239.2 2.75771 239.2 2.17875C239.2 1.5998 238.97 1.04455 238.56 0.635165C238.15 0.225779 237.594 -0.00421143 237.014 -0.00421143H211.732C211.152 -0.00421143 210.596 0.225779 210.186 0.635165C209.777 1.04455 209.546 1.5998 209.546 2.17875C209.546 2.75771 209.777 3.31296 210.186 3.72234C210.596 4.13173 211.152 4.36172 211.732 4.36172H214.854C214.567 4.36172 214.283 4.41818 214.018 4.52789C213.753 4.63759 213.512 4.79839 213.309 5.00109C213.106 5.2038 212.945 5.44445 212.835 5.7093C212.725 5.97415 212.668 6.25801 212.668 6.54468C212.668 6.83136 212.725 7.11522 212.835 7.38007C212.945 7.64492 213.106 7.88557 213.309 8.08827C213.512 8.29098 213.753 8.45178 214.018 8.56148C214.283 8.67119 214.567 8.72765 214.854 8.72765H210.487C210.2 8.72765 209.915 8.78411 209.65 8.89382C209.385 9.00352 209.144 9.16432 208.941 9.36702C208.738 9.56973 208.577 9.81038 208.467 10.0752C208.357 10.3401 208.301 10.6239 208.301 10.9106C208.301 11.1973 208.357 11.4812 208.467 11.746C208.577 12.0108 208.738 12.2515 208.941 12.4542C209.144 12.6569 209.385 12.8177 209.65 12.9274C209.915 13.0371 210.2 13.0936 210.487 13.0936H235.769C236.348 13.0936 236.904 12.8636 237.314 12.4542C237.724 12.0448 237.955 11.4896 237.955 10.9106C237.955 10.3317 237.724 9.77641 237.314 9.36702C236.904 8.95764 236.348 8.72765 235.769 8.72765H240.14C240.72 8.72765 241.276 8.49766 241.686 8.08827C242.096 7.67889 242.326 7.12364 242.326 6.54468C242.326 5.96573 242.096 5.41048 241.686 5.00109C241.276 4.59171 240.72 4.36172 240.14 4.36172H240.136Z" fill="#6C63FF"/>
<path opacity="0.1" d="M330.864 37.8846H327.742C328.029 37.8846 328.313 37.8281 328.578 37.7184C328.844 37.6087 329.085 37.4479 329.288 37.2452C329.491 37.0425 329.652 36.8019 329.762 36.537C329.871 36.2722 329.928 35.9883 329.928 35.7016C329.928 35.415 329.871 35.1311 329.762 34.8663C329.652 34.6014 329.491 34.3608 329.288 34.1581C329.085 33.9553 328.844 33.7946 328.578 33.6848C328.313 33.5751 328.029 33.5187 327.742 33.5187H302.46C302.173 33.5187 301.889 33.5751 301.624 33.6848C301.358 33.7946 301.117 33.9553 300.914 34.1581C300.711 34.3608 300.55 34.6014 300.44 34.8663C300.331 35.1311 300.274 35.415 300.274 35.7016C300.274 35.9883 300.331 36.2722 300.44 36.537C300.55 36.8019 300.711 37.0425 300.914 37.2452C301.117 37.4479 301.358 37.6087 301.624 37.7184C301.889 37.8281 302.173 37.8846 302.46 37.8846H305.565C304.985 37.8846 304.429 38.1146 304.02 38.524C303.61 38.9334 303.379 39.4886 303.379 40.0676C303.379 40.6465 303.61 41.2018 304.02 41.6112C304.429 42.0205 304.985 42.2505 305.565 42.2505H301.21C300.631 42.2505 300.075 42.4805 299.665 42.8899C299.255 43.2993 299.024 43.8545 299.024 44.4335C299.024 45.0125 299.255 45.5677 299.665 45.9771C300.075 46.3865 300.631 46.6165 301.21 46.6165H326.492C327.072 46.6165 327.628 46.3865 328.038 45.9771C328.448 45.5677 328.678 45.0125 328.678 44.4335C328.678 43.8545 328.448 43.2993 328.038 42.8899C327.628 42.4805 327.072 42.2505 326.492 42.2505H330.864C331.444 42.2505 332 42.0205 332.41 41.6112C332.82 41.2018 333.05 40.6465 333.05 40.0676C333.05 39.4886 332.82 38.9334 332.41 38.524C332 38.1146 331.444 37.8846 330.864 37.8846Z" fill="#6C63FF"/>
</g>
<defs>
<linearGradient id="paint0_linear_220_2100" x1="205.45" y1="246.789" x2="205.45" y2="130.893" gradientUnits="userSpaceOnUse">
<stop stop-color="#808080" stop-opacity="0.25"/>
<stop offset="0.54" stop-color="#808080" stop-opacity="0.12"/>
<stop offset="1" stop-color="#808080" stop-opacity="0.1"/>
</linearGradient>
<linearGradient id="paint1_linear_220_2100" x1="43853.4" y1="87292.2" x2="43853.4" y2="30946.2" gradientUnits="userSpaceOnUse">
<stop stop-color="#808080" stop-opacity="0.25"/>
<stop offset="0.54" stop-color="#808080" stop-opacity="0.12"/>
<stop offset="1" stop-color="#808080" stop-opacity="0.1"/>
</linearGradient>
<clipPath id="clip0_220_2100">
<rect width="451" height="338" fill="white"/>
</clipPath>
</defs>
</svg>
