<svg width="100" height="100" viewBox="0 0 100 100" fill="none" xmlns="http://www.w3.org/2000/svg">
<path d="M79.25 38.0042V55.8C79.2472 57.079 78.8073 58.3186 78.0033 59.3133C77.1993 60.308 76.0795 60.998 74.8296 61.2689C73.5796 61.5398 72.2746 61.3753 71.131 60.8027C69.9873 60.2302 69.0737 59.2839 68.5416 58.1209L64.5208 49.2875L58.6291 55.1792C57.0664 56.7415 54.9472 57.6191 52.7375 57.6191C50.5278 57.6191 48.4085 56.7415 46.8458 55.1792L39.225 47.5584C38.4008 46.7344 37.8394 45.6845 37.612 44.5414C37.3846 43.3984 37.5012 42.2136 37.9473 41.1369C38.3933 40.0602 39.1486 39.1399 40.1178 38.4926C41.0869 37.8452 42.2262 37.4998 43.3916 37.5H49.2833C50.3783 37.5003 51.4626 37.2849 52.4742 36.8659C53.4858 36.447 54.405 35.8327 55.1791 35.0584L58.6291 31.6084L50.2125 28.8C48.8226 28.3346 47.6497 27.3792 46.9128 26.1122C46.1759 24.8452 45.9254 23.3533 46.2081 21.9151C46.4909 20.4769 47.2875 19.1908 48.4492 18.297C49.6109 17.4033 51.0582 16.963 52.5208 17.0584L71.8875 18.35L79.2541 10.9834C81.2166 9.02086 86.325 6.27086 91.0375 10.9834C95.7541 15.6959 93.0041 20.8042 91.0375 22.7667L81.6958 32.1125C80.1329 33.675 79.2546 35.7942 79.2541 38.0042H79.25Z" fill="#3D4A77"/>
<path d="M31.25 89.1834C34.2541 83.175 39.4166 76.3625 44.1125 70.8292M8.33331 62.1042C11.2708 56.9625 15.9375 52.4375 20.8333 48.7542L8.33331 62.1042ZM8.33331 93.35C12.8 80.8417 21.0625 70.1667 29.2625 62.1L8.33331 93.35Z" stroke="#3D4A77" stroke-width="2" stroke-linecap="round" stroke-linejoin="round"/>
</svg>
