<svg width="108" height="98" viewBox="0 0 108 98" fill="none" xmlns="http://www.w3.org/2000/svg">
<g clip-path="url(#clip0_219_199)">
<path d="M14.2983 49.5281C17.5418 46.7312 21.6787 45.1865 25.9615 45.173C34.6911 45.173 41.9376 51.6634 42.7262 60.0328C47.8925 60.7629 51.9231 65.0888 51.9231 70.3979C51.9231 76.2263 47.0618 80.8702 41.1718 80.8702H12.2701C5.54279 80.8702 0 75.5675 0 68.9214C0 63.2001 4.10841 58.4621 9.54736 57.2614C10.0114 54.4608 11.8125 51.6699 14.2983 49.5281Z" fill="#3D4A77"/>
</g>
<g clip-path="url(#clip1_219_199)">
<path d="M70.3753 56.0185C73.6188 53.2216 77.7556 51.6769 82.0385 51.6635C90.768 51.6635 98.0146 58.1538 98.8031 66.5232C103.969 67.2534 108 71.5792 108 76.8883C108 82.7167 103.139 87.3606 97.2487 87.3606H68.347C61.6197 87.3606 56.0769 82.0579 56.0769 75.4118C56.0769 69.6905 60.1853 64.9525 65.6243 63.7518C66.0884 60.9512 67.8894 58.1603 70.3753 56.0185Z" fill="#3D4A77"/>
</g>
<g clip-path="url(#clip2_219_199)">
<path d="M50.1253 10.8454C53.3688 8.04849 57.5056 6.50379 61.7885 6.49036C70.518 6.49036 77.7646 12.9807 78.5531 21.3501C83.7195 22.0803 87.75 26.4061 87.75 31.7152C87.75 37.5436 82.8887 42.1875 76.9987 42.1875H48.097C41.3697 42.1875 35.8269 36.8848 35.8269 30.2387C35.8269 24.5174 39.9353 19.7794 45.3743 18.5787C45.8384 15.7781 47.6394 12.9872 50.1253 10.8454Z" fill="#3D4A77"/>
</g>
<defs>
<clipPath id="clip0_219_199">
<rect width="51.9231" height="51.9231" fill="white" transform="translate(0 38.6827)"/>
</clipPath>
<clipPath id="clip1_219_199">
<rect width="51.9231" height="51.9231" fill="white" transform="translate(56.0769 45.1731)"/>
</clipPath>
<clipPath id="clip2_219_199">
<rect width="51.9231" height="51.9231" fill="white" transform="translate(35.8269)"/>
</clipPath>
</defs>
</svg>
