<svg width="36" height="36" viewBox="0 0 36 36" fill="none" xmlns="http://www.w3.org/2000/svg">
<path d="M22.8713 24.165L25.3913 21.645C25.7307 21.3098 26.1601 21.0804 26.6274 20.9845C27.0947 20.8887 27.5798 20.9305 28.0238 21.105L31.095 22.3313C31.5437 22.5134 31.9284 22.8243 32.2007 23.2247C32.4729 23.6251 32.6206 24.0971 32.625 24.5813V30.2063C32.6224 30.5357 32.5532 30.8611 32.4215 31.163C32.2898 31.4649 32.0983 31.7371 31.8587 31.9631C31.6191 32.189 31.3362 32.3642 31.027 32.4779C30.7179 32.5917 30.389 32.6418 30.06 32.625C8.53878 31.2863 4.19628 13.0613 3.37503 6.0863C3.33691 5.74377 3.37174 5.39706 3.47723 5.06897C3.58273 4.74088 3.7565 4.43884 3.9871 4.18272C4.21771 3.92661 4.49994 3.72223 4.81521 3.58302C5.13048 3.44381 5.47165 3.37293 5.81628 3.37505H11.25C11.7349 3.37648 12.2083 3.52295 12.6092 3.7956C13.0102 4.06826 13.3204 4.45464 13.5 4.90505L14.7263 7.9763C14.9066 8.4185 14.9526 8.90402 14.8585 9.37221C14.7645 9.8404 14.5346 10.2705 14.1975 10.6088L11.6775 13.1288C11.6775 13.1288 13.1288 22.95 22.8713 24.165Z" fill="#7F88A9"/>
</svg>
