<svg width="41" height="41" viewBox="0 0 41 41" fill="none" xmlns="http://www.w3.org/2000/svg">
<path fill-rule="evenodd" clip-rule="evenodd" d="M2.5625 20.5C2.5625 25.2573 4.45234 29.8198 7.81627 33.1837C11.1802 36.5477 15.7427 38.4375 20.5 38.4375C25.2573 38.4375 29.8198 36.5477 33.1837 33.1837C36.5477 29.8198 38.4375 25.2573 38.4375 20.5C38.4375 15.7427 36.5477 11.1802 33.1837 7.81627C29.8198 4.45234 25.2573 2.5625 20.5 2.5625C15.7427 2.5625 11.1802 4.45234 7.81627 7.81627C4.45234 11.1802 2.5625 15.7427 2.5625 20.5ZM35.3625 20.5C35.3625 24.4418 33.7966 28.2221 31.0094 31.0094C28.2221 33.7966 24.4418 35.3625 20.5 35.3625C16.5582 35.3625 12.7779 33.7966 9.99063 31.0094C7.20337 28.2221 5.6375 24.4418 5.6375 20.5C5.6375 16.5582 7.20337 12.7779 9.99063 9.99063C12.7779 7.20337 16.5582 5.6375 20.5 5.6375C24.4418 5.6375 28.2221 7.20337 31.0094 9.99063C33.7966 12.7779 35.3625 16.5582 35.3625 20.5Z" fill="#7F88A9"/>
<path fill-rule="evenodd" clip-rule="evenodd" d="M12.8125 20.4999C12.8125 29.77 15.869 37.4124 20.5 37.4124C25.1309 37.4124 28.1875 29.77 28.1875 20.4999C28.1875 11.2298 25.1309 3.5874 20.5 3.5874C15.869 3.5874 12.8125 11.2298 12.8125 20.4999ZM25.1125 20.4999C25.1125 28.212 22.6627 34.3374 20.5 34.3374C18.3372 34.3374 15.8875 28.212 15.8875 20.4999C15.8875 12.7878 18.3372 6.6624 20.5 6.6624C22.6627 6.6624 25.1125 12.7878 25.1125 20.4999Z" fill="#7F88A9"/>
<path d="M7.38412 11.2073L9.44642 8.92773C9.65142 9.11223 9.87487 9.29673 10.1127 9.47508C12.7182 11.4267 16.8777 12.6321 21.4184 12.6321C25.295 12.6321 28.905 11.7567 31.527 10.2582C32.1584 9.89738 32.7201 9.50583 33.2059 9.08968L35.2026 11.4287C34.5356 11.9945 33.8162 12.4956 33.0542 12.9252C29.9464 14.7046 25.8095 15.705 21.4184 15.705C16.2483 15.705 11.4452 14.3151 8.26767 11.9351C7.96214 11.7062 7.66731 11.4634 7.38412 11.2073ZM7.38412 29.8254L9.44642 32.105C9.65142 31.9185 9.87487 31.736 10.1127 31.5577C12.7182 29.6061 16.8777 28.4007 21.4184 28.4007C25.295 28.4007 28.905 29.276 31.527 30.7746C32.1584 31.1354 32.7201 31.5269 33.2059 31.9431L35.2026 29.604C34.5347 29.0393 33.8155 28.5383 33.0542 28.1075C29.9464 26.3281 25.8095 25.3277 21.4184 25.3277C16.2483 25.3277 11.4452 26.7176 8.26767 29.0977C7.96213 29.3266 7.6673 29.5694 7.38412 29.8254ZM3.58752 22.0375V18.9625H37.4125V22.0375H3.58752Z" fill="#7F88A9"/>
</svg>
