<svg width="102" height="102" viewBox="0 0 102 102" fill="none" xmlns="http://www.w3.org/2000/svg">
<path d="M6.8452 7.62211C6.88158 7.44592 6.96743 7.28374 7.09269 7.1546C7.21795 7.02546 7.37743 6.9347 7.55243 6.89297C19.2207 4.04016 46.1809 14.2063 60.7876 28.807C63.3929 31.3912 65.7679 34.1975 67.8858 37.1941C72.3901 36.7957 76.8945 37.1284 80.7334 38.8018C91.5649 43.5691 94.7186 56.0084 95.5971 61.3594C95.647 61.6523 95.6282 61.9527 95.5422 62.2371C95.4563 62.5215 95.3055 62.7821 95.1018 62.9983C94.8981 63.2146 94.647 63.3806 94.3682 63.4834C94.0895 63.5862 93.7907 63.6229 93.4954 63.5906L76.1016 61.6721C76.0892 62.9835 76.01 64.2934 75.8645 65.5968C75.777 66.5018 75.3752 67.3477 74.729 67.9874L67.9934 74.707C67.3531 75.3524 66.5076 75.7541 65.6028 75.8426C64.3067 75.9875 63.0041 76.0667 61.7001 76.0796L63.6086 93.4515C63.6404 93.7468 63.6034 94.0454 63.5005 94.3239C63.3976 94.6025 63.2315 94.8534 63.0154 95.057C62.7992 95.2606 62.5388 95.4114 62.2546 95.4975C61.9704 95.5836 61.6701 95.6027 61.3773 95.5533C56.0363 94.6966 43.5751 91.543 38.8357 80.7115C37.1623 76.8725 36.8196 72.3901 37.2061 67.9077C34.2023 65.7897 31.3886 63.414 28.7971 60.8075C14.1446 46.2287 4.03621 19.8701 6.8452 7.62211ZM43.4158 43.4157C44.7537 42.0786 45.6651 40.3748 46.0346 38.5197C46.4041 36.6646 46.215 34.7415 45.4915 32.9939C44.7679 31.2462 43.5423 29.7523 41.9696 28.7013C40.3969 27.6503 38.5478 27.0893 36.6563 27.0893C34.7647 27.0893 32.9157 27.6503 31.343 28.7013C29.7703 29.7523 28.5447 31.2462 27.8211 32.9939C27.0975 34.7415 26.9085 36.6646 27.278 38.5197C27.6475 40.3748 28.5588 42.0786 29.8968 43.4157C30.784 44.3042 31.8377 45.0091 32.9975 45.49C34.1574 45.9709 35.4007 46.2184 36.6563 46.2184C37.9119 46.2184 39.1552 45.9709 40.315 45.49C41.4749 45.0091 42.5286 44.3042 43.4158 43.4157Z" fill="#3D4A77"/>
<path d="M68.4516 79.574C69.5433 80.6677 71.2944 81.094 73.4021 81.4586C78.1376 82.2654 82.3192 78.1735 81.4685 73.3862C81.1438 71.5713 80.1836 69.0273 79.5859 68.4297C79.4553 68.3015 79.3683 68.1355 79.3374 67.9552C79.3065 67.7749 79.3332 67.5894 79.4137 67.4251C79.4942 67.2607 79.6244 67.126 79.7858 67.0399C79.9473 66.9538 80.1318 66.9208 80.313 66.9455C82.9611 67.2695 85.4247 68.4701 87.3116 70.3561C91.9952 75.0437 92.4375 92.4375 92.4375 92.4375C92.4375 92.4375 75.0338 91.9953 70.3501 87.3076C68.4582 85.4223 67.2561 82.9549 66.9375 80.3031C66.8638 79.4704 67.8778 78.9743 68.4516 79.574Z" fill="#3D4A77"/>
</svg>
